<?xml version="1.0" standalone="no"?>
<!DOCTYPE svg PUBLIC "-//W3C//DTD SVG 20010904//EN"
 "http://www.w3.org/TR/2001/REC-SVG-20010904/DTD/svg10.dtd">
<svg version="1.0" xmlns="http://www.w3.org/2000/svg"
 width="595.000000pt" height="595.000000pt" viewBox="0 0 595.000000 595.000000"
 preserveAspectRatio="xMidYMid meet">
<metadata>
Created by potrace 1.14, written by Peter Selinger 2001-2017
</metadata>
<g transform="translate(0.000000,595.000000) scale(0.100000,-0.100000)"
fill="#000000" stroke="none">
<path d="M2630 5111 c-36 -10 -110 -41 -165 -69 -55 -28 -145 -65 -200 -82
-375 -116 -406 -134 -685 -386 -25 -22 -61 -54 -80 -70 -219 -182 -472 -530
-564 -777 -14 -37 -46 -119 -71 -182 -48 -124 -104 -308 -129 -426 -9 -41 -25
-114 -36 -164 -37 -165 -63 -522 -45 -620 9 -48 47 -159 60 -175 6 -8 27 -42
45 -75 35 -64 98 -150 168 -228 23 -27 86 -114 138 -195 135 -205 242 -342
353 -450 142 -138 224 -190 451 -289 19 -8 67 -30 105 -48 102 -49 137 -63
270 -109 l120 -41 500 1 500 1 85 40 c171 81 239 106 382 142 42 11 97 29 122
40 25 12 52 21 60 21 8 0 17 4 20 9 3 5 52 31 108 59 128 62 261 151 352 234
67 61 186 208 186 231 0 6 8 20 19 31 10 12 33 48 51 81 17 33 64 107 103 165
39 57 88 140 110 184 44 91 86 156 134 206 66 69 132 179 159 266 25 80 26 93
21 232 -3 81 -10 162 -16 181 -10 32 -22 110 -36 241 -4 30 -11 75 -16 99 -10
46 -92 220 -155 329 -26 45 -42 92 -55 155 -36 180 -91 294 -208 427 -32 36
-65 76 -74 90 -41 59 -213 220 -352 327 -234 181 -339 265 -350 278 -6 7 -40
34 -75 62 -48 35 -92 58 -160 80 -116 39 -360 94 -535 123 -71 12 -175 30
-230 40 -152 28 -306 33 -385 11z"/>
</g>
</svg>
